<?xml version="1.0" ?><!DOCTYPE svg  PUBLIC '-//W3C//DTD SVG 1.1//EN'  'http://www.w3.org/Graphics/SVG/1.1/DTD/svg11.dtd'><svg enable-background="new 0 0 300 300" height="300px" version="1.1" viewBox="0 0 300 300" width="300px" xml:space="preserve" xmlns="http://www.w3.org/2000/svg" xmlns:xlink="http://www.w3.org/1999/xlink"><g id="Layer_1"><g><g><path d="M39.223,255.856c1.975-6.86,5.197-13.173,7.877-19.764c3.069-7.548,5.603-15.302,8.681-22.85     c5.839-14.319,13.592-28.257,21.056-41.785c3.622-6.564,8.622-10.966,14.528-15.436c6.063-4.588,11.8-9.555,17.348-14.751     c10.945-10.251,20.994-21.419,31.477-32.132c10.956-11.197,22.275-22.033,33.264-33.199c5.203-5.287,10.414-10.615,15.255-16.238     c4.902-5.695,9.131-11.933,14.026-17.638c4.224-4.922,8.886-9.806,15.27-11.694c5.925-1.751,11.992,1.661,16.754,4.806     c4.753,3.138,8.924,7.13,13.276,10.78c4.439,3.723,9.139,7.04,13.318,11.076c3.888,3.754,7.059,8.076,8.331,13.387     c1.405,5.861-2.235,11.747-5.397,16.341c-7.595,11.035-19.659,18.932-29.106,28.27c-10.251,10.133-19.519,21.21-29.609,31.499     c-11.139,11.355-22.478,22.506-33.406,34.065c-10.282,10.876-20.02,22.251-30.291,33.138c-4.561,4.833-9.213,9.121-14.356,13.296     c-1.002,0.813-2.072,1.998-2.736,3.112c1.481-2.486,3.035-1.947,0.03-1.307c-2.867,0.61-5.679,1.562-8.472,2.438     c-26.406,8.296-54.29,11.121-81.069,18.093c-6.236,1.623-3.588,11.269,2.658,9.643c26.767-6.969,54.709-9.691,81.069-18.093     c3.895-1.241,10.113-1.625,13.274-4.26c4.475-3.729,8.949-7.877,13.063-12.086c10.789-11.038,20.791-22.81,31.29-34.117     c10.82-11.654,22.133-22.843,33.328-34.134c10.627-10.717,20.452-22.18,31.029-32.942c14.884-15.144,47.839-34.843,36.721-60.492     c-4.565-10.533-14.039-16.964-22.597-23.999c-8.84-7.266-17.38-16.033-29.014-18.43c-13.171-2.713-23.48,6.441-31.421,15.695     c-4.563,5.317-8.555,11.095-13.034,16.48c-5.135,6.174-10.945,11.859-16.573,17.579c-10.987,11.166-22.302,22.003-33.258,33.201     c-10.469,10.7-20.542,21.779-31.474,32.018c-10.445,9.783-23.757,17.064-31.289,29.517c-7.851,12.981-14.672,27.14-20.909,40.959     c-3.563,7.896-6.362,16.115-9.37,24.23c-2.884,7.78-6.879,15.061-9.183,23.064C27.792,259.409,37.443,262.042,39.223,255.856     L39.223,255.856z" fill="#2F353A"/></g></g><g><g><path d="M68.897,171.004c5.875,0.851,11.879,1.099,17.613,2.729c3.519,1.001,6.856,3.877,9.768,6.007     c3.876,2.833,7.582,6.008,11.074,9.298c5.699,5.371,9.783,11.875,12.904,19.001c1.518,3.467,2.813,7.034,4.231,10.542     c1.971,4.875,2.307,9.498,2.969,14.649c0.203,1.576,2.705,1.596,2.5,0c-0.552-4.301-0.512-8.597-1.976-12.724     c-1.327-3.741-2.985-7.428-4.471-11.112c-2.958-7.336-6.761-13.938-12.101-19.801c-6.196-6.803-14.28-13.101-22.352-17.544     c-5.488-3.021-13.436-2.579-19.495-3.456C67.985,168.365,67.307,170.774,68.897,171.004L68.897,171.004z" fill="#2F353A"/></g></g><g><g><path d="M194.027,47.429c27.986,5.283,48.8,30.086,63.012,52.997c0.848,1.367,3.011,0.112,2.158-1.262     c-14.542-23.443-35.881-48.742-64.506-54.146C193.116,44.721,192.444,47.13,194.027,47.429L194.027,47.429z" fill="#2F353A"/></g></g><g><g><path d="M184.536,59.125c1.612,0,1.612-2.5,0-2.5S182.924,59.125,184.536,59.125L184.536,59.125z" fill="#2F353A"/></g></g><g><g><path d="M184.868,59.081c3.625-1.094,10.472,4.265,13.358,6.021c4.9,2.981,9.428,6.444,14.129,9.707     c14.285,9.916,27.674,23.206,33.43,39.957c0.521,1.515,2.936,0.864,2.41-0.665c-6.028-17.543-19.765-30.927-34.577-41.45     c-5.319-3.778-10.557-7.591-16.172-10.937c-3.18-1.895-9.198-6.264-13.242-5.044C182.665,57.134,183.321,59.547,184.868,59.081     L184.868,59.081z" fill="#2F353A"/></g></g><g><g><path d="M93.455,175.748c10.344-7.585,18.466-17.635,28.095-26.046c9.966-8.706,19.886-17.314,29.554-26.359     c9.688-9.063,19.352-18.154,28.494-27.773c8.462-8.904,15.545-18.883,23.773-27.97c1.079-1.191-0.684-2.965-1.768-1.768     c-7.422,8.196-13.849,17.192-21.327,25.35c-8.963,9.777-18.649,18.877-28.321,27.942c-9.65,9.044-19.314,17.939-29.429,26.464     c-10.525,8.87-19.219,19.853-30.333,28.002C90.908,174.532,92.153,176.703,93.455,175.748L93.455,175.748z" fill="#2F353A"/></g></g><g><g><path d="M113.395,193.231c4.105-3.069,7.236-7.435,10.699-11.187c4.867-5.273,10.112-10.189,15.416-15.017     c11.159-10.158,22.396-20.002,32.643-31.112c9.479-10.278,18.444-21.014,28.197-31.039c4.981-5.12,10.229-9.965,15.717-14.536     c2.862-2.384,4.985-5.5,7.676-8.081c1.165-1.118-0.604-2.883-1.768-1.768c-2.24,2.148-4.238,4.567-6.255,6.923     c-2.242,2.62-5.664,4.749-8.242,7.079c-2.628,2.376-5.158,4.858-7.663,7.363c-9.882,9.883-18.845,20.646-28.236,30.984     c-9.759,10.744-20.398,20.379-31.202,30.043c-5.321,4.76-10.535,9.63-15.526,14.735c-4.223,4.321-7.868,9.825-12.716,13.451     C110.858,192.026,112.103,194.198,113.395,193.231L113.395,193.231z" fill="#2F353A"/></g></g><g><g><path d="M123.776,212.07c20.233-16.288,37.332-36.028,55.779-54.226c19.586-19.322,38.819-38.685,57.11-59.251     c1.067-1.2-0.694-2.975-1.768-1.768c-17.86,20.082-36.565,39.073-55.735,57.898c-18.943,18.602-36.424,38.891-57.154,55.579     C120.752,211.313,122.533,213.071,123.776,212.07L123.776,212.07z" fill="#2F353A"/></g></g><g><g><path d="M194.464,61.201c4.181-3.11,6.764-7.537,10.041-11.488c1.021-1.231-0.737-3.01-1.768-1.768     c-3.106,3.745-5.574,8.151-9.535,11.098C191.925,59.993,193.169,62.165,194.464,61.201L194.464,61.201z" fill="#2F353A"/></g></g><g><g><path d="M199.939,64.371c2.971-4.222,6.893-7.609,10.096-11.641c0.991-1.248-0.765-3.03-1.768-1.768     c-3.338,4.201-7.39,7.745-10.486,12.147C196.851,64.431,199.02,65.678,199.939,64.371L199.939,64.371z" fill="#2F353A"/></g></g><g><g><path d="M205.931,66.979c3.089-4.202,6.444-8.086,10.485-11.402c1.247-1.023-0.532-2.782-1.768-1.768     c-4.207,3.453-7.663,7.537-10.876,11.908C202.815,67.018,204.987,68.263,205.931,66.979L205.931,66.979z" fill="#2F353A"/></g></g><g><g><path d="M209.413,71.465c4.06-4.503,9.463-7.454,12.92-12.537c0.91-1.337-1.258-2.586-2.158-1.262     c-3.316,4.875-8.628,7.703-12.529,12.031C206.569,70.892,208.332,72.666,209.413,71.465L209.413,71.465z" fill="#2F353A"/></g></g><g><g><path d="M215.527,75.098c3.249-4.345,7.317-7.985,11.071-11.877c1.119-1.16-0.646-2.93-1.768-1.768     c-3.91,4.054-8.078,7.856-11.462,12.383C212.402,75.129,214.574,76.373,215.527,75.098L215.527,75.098z" fill="#2F353A"/></g></g><g><g><path d="M220.18,79.052c4.629-2.941,7.806-8.111,10.974-12.462c0.951-1.306-1.22-2.551-2.158-1.262     c-2.903,3.986-5.833,8.868-10.077,11.565C217.562,77.755,218.814,79.92,220.18,79.052L220.18,79.052z" fill="#2F353A"/></g></g><g><g><path d="M225.44,83.39c3.531-4.16,7.489-7.931,11.021-12.091c1.037-1.221-0.723-2.999-1.768-1.768     c-3.532,4.16-7.489,7.931-11.021,12.091C222.636,82.843,224.396,84.621,225.44,83.39L225.44,83.39z" fill="#2F353A"/></g></g><g><g><path d="M230.033,87.006c2.772-4.069,5.824-8.032,9.667-11.151c1.252-1.017-0.528-2.774-1.768-1.768     c-4.001,3.248-7.172,7.421-10.058,11.657C226.964,87.081,229.132,88.33,230.033,87.006L230.033,87.006z" fill="#2F353A"/></g></g><g><g><path d="M232.139,90.852c4.327-2.958,8.684-6.408,11.244-11.078c0.775-1.414-1.383-2.675-2.158-1.262     c-2.353,4.289-6.374,7.464-10.348,10.181C229.555,89.597,230.804,91.765,232.139,90.852L232.139,90.852z" fill="#2F353A"/></g></g><g><g><path d="M236.829,94.772c3.54-3.655,6.919-7.478,10.108-11.443c1-1.243-0.757-3.024-1.768-1.768     c-3.189,3.965-6.568,7.787-10.108,11.443C233.94,94.163,235.706,95.932,236.829,94.772L236.829,94.772z" fill="#2F353A"/></g></g><g><g><path d="M239.913,98.966c3.253-3.326,6.227-8.324,10.62-10.222c1.477-0.638,0.202-2.791-1.262-2.158     c-4.627,1.999-7.71,7.121-11.126,10.613C237.018,98.351,238.784,100.12,239.913,98.966L239.913,98.966z" fill="#2F353A"/></g></g><g><g><path d="M243.335,104.163c3.177-4.214,7.506-7.449,9.992-12.184c0.749-1.426-1.408-2.689-2.158-1.262     c-2.47,4.702-6.828,7.986-9.992,12.184C240.205,104.189,242.378,105.433,243.335,104.163L243.335,104.163z" fill="#2F353A"/></g></g><g><g><path d="M46.821,225.319c3.529-0.493,8.937,2.704,11.442,4.981c3.94,3.58,4.698,9.087,5.471,14.042     c0.248,1.59,2.657,0.912,2.411-0.664c-0.928-5.949-2.163-12.131-7.194-16.052c-3.177-2.476-8.625-5.301-12.795-4.718     C44.565,223.131,45.245,225.54,46.821,225.319L46.821,225.319z" fill="#2F353A"/></g></g><g><g><path d="M38.913,237.869c0.684,4.386,1.367,8.771,2.05,13.156c0.762-0.32,1.523-0.642,2.285-0.963     c-0.746-1.521-1.633-2.881-2.551-4.303c-0.649-1.006-2.362-0.664-2.329,0.631c0.046,1.816,0.096,3.538-0.107,5.345     c0.711-0.295,1.422-0.589,2.134-0.884c-1.023-0.98-2.035-1.917-2.972-2.983c-0.795-0.905-2.561,0.049-2.089,1.216     c0.55,1.362,1.115,2.541,1.923,3.778c0.461,0.706,1.753,0.916,2.158,0c1.59-3.591,1.383-6.963,0.484-10.733     c-0.762,0.32-1.523,0.642-2.285,0.963c1.497,2.512,2.596,5.168,3.656,7.887c0.491,1.26,2.452,1.162,2.456-0.332     c0.01-4.423-1.806-8.249-3.175-12.38c-0.697,0.405-1.393,0.811-2.089,1.216c3.16,3.415,4.681,7.555,6.012,11.938     c0.434,1.429,2.302,1.021,2.456-0.332c0.624-5.489-2.746-9.655-4.169-14.733c-0.697,0.405-1.393,0.811-2.089,1.216     c3.698,3.401,4.622,8.333,6.461,12.808c0.505,1.229,2.471,1.184,2.456-0.332c-0.062-6.033-3.801-10.534-5.631-16.07     c-0.697,0.405-1.393,0.811-2.089,1.216c3.467,3.624,5.122,8.114,6.768,12.76c0.546,1.542,2.66,0.913,2.411-0.664     c-0.807-5.104-3.938-9.062-5.606-13.856c-0.697,0.405-1.393,0.811-2.089,1.216c4.216,3.744,5.745,9.156,8.002,14.14     c0.63,1.393,2.493,0.321,2.285-0.963c-0.961-5.932-5.081-10.312-7.165-15.808c-0.697,0.405-1.393,0.811-2.089,1.216     c5.067,4.711,6.43,11.799,9.798,17.621c0.691,1.195,2.821,0.38,2.285-0.963c-2.563-6.417-7.448-11.608-9.429-18.275     c-0.697,0.405-1.393,0.811-2.089,1.216c5.471,4.383,7.61,11.14,11.539,16.724c0.766,1.089,2.784,0.458,2.285-0.963     c-2.332-6.637-7.261-11.799-10.12-18.173c-0.654,0.505-1.309,1.01-1.963,1.515c4.969,4.179,8.63,9.546,11.912,15.097     c0.654-0.505,1.309-1.01,1.963-1.515c-5.497-4.772-10.497-10.719-12.568-17.811c-0.697,0.405-1.393,0.811-2.089,1.216     c4.758,5.594,9.243,11.385,13.518,17.354c0.654-0.505,1.309-1.01,1.963-1.515c-4.745-4.994-8.341-10.78-11.845-16.675     c-0.47,0.612-0.941,1.224-1.412,1.836c8.389,1.852,12.708,12.839,14.941,20.167c-0.057-0.188-7.501-0.82-8.767-1.037     c-2.553-0.438-5.103-1.018-7.687-1.24c-1.607-0.139-1.594,2.363,0,2.5c2.315,0.199,19.122,4.869,19.078,0.17     c-0.04-4.243-3.566-9.914-5.644-13.433c-2.543-4.309-6.205-8.422-11.257-9.537c-1.042-0.23-1.997,0.852-1.412,1.836     c3.615,6.082,7.343,12.032,12.235,17.181c0.962,1.014,2.8-0.346,1.963-1.515c-4.399-6.145-9.011-12.104-13.908-17.86     c-0.829-0.975-2.426,0.063-2.089,1.216c2.188,7.488,7.399,13.867,13.212,18.914c1.042,0.904,2.716-0.241,1.963-1.515     c-3.381-5.718-7.183-11.297-12.303-15.603c-1.118-0.94-2.547,0.212-1.963,1.515c2.767,6.167,7.614,11.162,9.867,17.575     c0.762-0.321,1.523-0.642,2.285-0.963c-4.057-5.769-6.277-12.702-11.929-17.229c-0.909-0.729-2.477-0.089-2.089,1.216     c1.993,6.705,6.86,11.845,9.429,18.275c0.762-0.321,1.523-0.642,2.285-0.963c-3.489-6.032-4.932-13.24-10.189-18.127     c-0.848-0.788-2.56-0.026-2.089,1.216c2.069,5.458,6.214,9.939,7.165,15.808c0.762-0.321,1.523-0.642,2.285-0.963     c-2.352-5.193-4.003-10.748-8.393-14.646c-0.869-0.771-2.529-0.047-2.089,1.216c1.657,4.761,4.807,8.797,5.606,13.856     c0.804-0.222,1.607-0.442,2.411-0.664c-1.793-5.063-3.641-9.922-7.411-13.863c-0.847-0.886-2.485,0.018-2.089,1.216     c1.726,5.222,5.485,9.729,5.542,15.406c0.818-0.11,1.637-0.222,2.456-0.332c-2.017-4.906-3.058-10.189-7.104-13.911     c-0.901-0.829-2.438-0.027-2.089,1.216c1.341,4.782,4.667,8.908,4.081,14.069c0.818-0.11,1.637-0.222,2.456-0.332     c-1.463-4.815-3.192-9.298-6.656-13.041c-0.837-0.905-2.482,0.029-2.089,1.216c1.287,3.881,3.096,7.546,3.086,11.716     c0.818-0.11,1.637-0.222,2.456-0.332c-1.142-2.929-2.296-5.778-3.909-8.484c-0.737-1.237-2.612-0.409-2.285,0.963     c0.739,3.098,1.125,5.745-0.231,8.808c0.719,0,1.439,0,2.158,0c-0.711-0.975-1.268-2.035-1.67-3.181     c-0.697,0.405-1.393,0.811-2.089,1.216c0.937,1.066,1.948,2.003,2.972,2.983c0.849,0.813,2.016,0.167,2.134-0.884     c0.203-1.807,0.153-3.528,0.107-5.345c-0.776,0.21-1.553,0.421-2.329,0.631c0.917,1.422,1.805,2.782,2.551,4.303     c0.675,1.376,2.486,0.328,2.285-0.963c-0.684-4.386-1.367-8.771-2.05-13.156C41.076,235.615,38.667,236.293,38.913,237.869     L38.913,237.869z" fill="#2F353A"/></g></g><g><g><path d="M51.568,229.364c2.585,1.668,5.143,3.5,6.13,6.558c0.513-0.513,1.025-1.024,1.538-1.537     c-0.697-0.263-1.145-0.755-1.576-1.341c-0.943-1.285-3.114-0.04-2.158,1.262c0.849,1.156,1.711,1.979,3.069,2.489     c0.889,0.335,1.815-0.68,1.538-1.537c-1.202-3.723-4.11-6.007-7.279-8.052C51.471,226.329,50.219,228.494,51.568,229.364     L51.568,229.364z" fill="#2F353A"/></g></g><g><g><path d="M52.343,234.545c0.934,1.506,1.752,3.065,2.499,4.671c0.543,1.169,2.329,0.544,2.329-0.631     c0-1.792-0.876-3.323-1.97-4.683c-0.925-1.149-2.602,0.315-1.963,1.515c0.334,0.629,0.713,1.232,1.048,1.861     c0.757,1.424,2.915,0.161,2.158-1.262c-0.334-0.629-0.713-1.232-1.048-1.861c-0.654,0.505-1.309,1.01-1.963,1.515     c0.67,0.832,1.237,1.822,1.237,2.915c0.776-0.21,1.553-0.421,2.329-0.631c-0.746-1.606-1.565-3.166-2.499-4.671     C53.654,231.917,51.49,233.171,52.343,234.545L52.343,234.545z" fill="#2F353A"/></g></g><path d="M59.584,229.563c-0.137-0.087-0.274-0.157-0.412-0.218c0.032-0.612-0.164-1.251-0.522-1.822   c-0.601-0.959-2.086-1.398-3.098-0.86c-0.313,0.165-0.563,0.369-0.776,0.594c-0.039-0.021-0.076-0.047-0.116-0.067   c-0.557-0.52-1.192-0.931-2.042-1.152c-0.69-0.18-1.432-0.045-2.058,0.284c-0.862-0.194-1.707,0.793-1.412,1.666   c-0.152,0.621-0.004,1.31,0.617,1.956c0.07,0.072,0.148,0.131,0.218,0.201c0.838,1.636,1.741,3.217,2.765,4.731   c0.161,0.902,0.324,1.805,0.469,2.71c-0.45,0.197-0.771,0.634-0.638,1.268c0.155,0.739,0.399,1.453,0.632,2.169   c-2.379,0.205-2.552,4.339,0.239,5.028c3.789,0.934,10.296,1.855,11.009-3.25C65.089,238.307,63.625,232.146,59.584,229.563z" fill="#2F353A"/><g><g><path d="M64.273,228.657c5.618,3.477,7.347,12.19,7.233,18.316c-0.015,0.807,1.235,0.805,1.25,0     c0.123-6.61-1.809-15.655-7.853-19.396C64.216,227.152,63.589,228.233,64.273,228.657L64.273,228.657z" fill="#2F353A"/></g></g><g><g><path d="M67.917,228.089c4.931,4.713,7.287,11.011,8.325,17.637c0.124,0.795,1.329,0.456,1.205-0.332     c-1.069-6.832-3.57-13.338-8.646-18.189C68.219,226.647,67.334,227.53,67.917,228.089L67.917,228.089z" fill="#2F353A"/></g></g><g><g><path d="M71.688,227.146c3.747,4.75,6.076,9.971,6.417,16.058c0.045,0.802,1.295,0.806,1.25,0     c-0.361-6.449-2.812-11.906-6.783-16.942C72.073,225.629,71.195,226.52,71.688,227.146L71.688,227.146z" fill="#2F353A"/></g></g><g><g><path d="M74.753,225.496c4.464,4.309,5.404,10.448,7.618,15.986c0.295,0.739,1.505,0.417,1.205-0.332     c-2.302-5.761-3.301-12.062-7.939-16.539C75.057,224.052,74.172,224.935,74.753,225.496L74.753,225.496z" fill="#2F353A"/></g></g><g><g><path d="M78.053,223.61c5.104,4.829,7.892,10.881,7.831,17.942c-0.007,0.807,1.243,0.806,1.25,0     c0.064-7.369-2.869-13.785-8.197-18.827C78.352,222.173,77.466,223.055,78.053,223.61L78.053,223.61z" fill="#2F353A"/></g></g><g><g><path d="M82.531,221.96c4.399,5.029,6.449,10.913,7.617,17.401c0.143,0.793,1.347,0.456,1.205-0.332     c-1.212-6.73-3.388-12.751-7.938-17.954C82.883,220.468,82.003,221.355,82.531,221.96L82.531,221.96z" fill="#2F353A"/></g></g><g><g><path d="M85.36,220.075c5.232,5.056,7.271,12.579,9.503,19.287c0.253,0.761,1.46,0.435,1.205-0.332     c-2.296-6.901-4.439-14.636-9.825-19.84C85.664,218.631,84.779,219.514,85.36,220.075L85.36,220.075z" fill="#2F353A"/></g></g><g><g><path d="M89.206,217.677c1.031,3.092,4.003,5.493,5.689,8.349c2.313,3.917,4.034,8.18,5.923,12.308     c0.335,0.732,1.412,0.097,1.079-0.631c-1.709-3.734-3.345-7.498-5.267-11.13c-0.856-1.618-1.842-3.159-2.859-4.679     c-1.028-1.537-2.772-2.785-3.361-4.549C90.157,216.584,88.95,216.91,89.206,217.677L89.206,217.677z" fill="#2F353A"/></g></g><g><g><path d="M93.041,215.941c0.512,0.954,1.421,1.685,2.175,2.44c2.152,2.156,3.602,4.474,4.731,7.311     c1.837,4.618,2.425,9.557,4.643,14.055c0.356,0.723,1.435,0.089,1.079-0.631c-2.372-4.812-3.082-10.147-5.054-15.106     c-1.467-3.687-4.74-5.428-6.495-8.699C93.739,214.6,92.66,215.231,93.041,215.941L93.041,215.941z" fill="#2F353A"/></g></g><g><g><path d="M96.277,213.435c1.347,3.48,4.419,5.928,6.248,9.178c2.291,4.072,3.285,8.845,5.129,13.128     c0.318,0.738,1.395,0.102,1.079-0.631c-1.676-3.893-2.81-7.982-4.508-11.866c-1.649-3.774-5.29-6.387-6.743-10.141     C97.194,212.359,95.985,212.682,96.277,213.435L96.277,213.435z" fill="#2F353A"/></g></g><g><g><path d="M99.973,213.004c6.509,6.837,10.308,15.851,14.045,24.386c0.323,0.737,1.399,0.1,1.079-0.631     c-3.786-8.647-7.646-17.712-14.24-24.64C100.3,211.535,99.417,212.42,99.973,213.004L99.973,213.004z" fill="#2F353A"/></g></g><g><g><path d="M104.825,211.698c1.493,3.143,4.63,5.779,6.474,8.801c2.902,4.757,4.98,10.015,7.433,15.006     c0.355,0.724,1.433,0.09,1.079-0.631c-2.463-5.014-4.665-10.147-7.433-15.006c-1.742-3.056-5.002-5.703-6.474-8.801     C105.559,210.34,104.481,210.975,104.825,211.698L104.825,211.698z" fill="#2F353A"/></g></g><g><g><path d="M108.125,208.869c4.911,8.586,11.428,16.119,14.786,25.543c0.269,0.754,1.477,0.429,1.205-0.332     c-3.395-9.528-9.945-17.159-14.912-25.842C108.804,207.539,107.724,208.168,108.125,208.869L108.125,208.869z" fill="#2F353A"/></g></g><g><g><path d="M113.719,204.007c1.87,4.446,5.188,7.795,6.916,12.382c1.809,4.798,2.924,9.765,5.168,14.401     c0.351,0.726,1.429,0.091,1.079-0.631c-2.189-4.522-3.416-9.369-5.042-14.104c-1.594-4.641-5.047-7.938-6.917-12.381     C114.616,202.943,113.406,203.265,113.719,204.007L113.719,204.007z" fill="#2F353A"/></g></g><g><g><path d="M117.019,200.706c0.771,4.033,3.748,7.069,6.328,10.093c4.008,4.699,5.55,10.487,8.584,15.749     c0.402,0.698,1.483,0.068,1.079-0.631c-2.586-4.484-3.963-9.557-6.993-13.79c-2.73-3.815-6.869-6.926-7.793-11.753     C118.073,199.583,116.868,199.919,117.019,200.706L117.019,200.706z" fill="#2F353A"/></g></g><g><g><path d="M119.772,200.275c6.347,6.567,10.363,14.634,15.223,22.266c0.431,0.678,1.514,0.051,1.079-0.631     c-4.917-7.723-9-15.878-15.418-22.52C120.095,198.811,119.212,199.695,119.772,200.275L119.772,200.275z" fill="#2F353A"/></g></g><g><g><path d="M122.365,198.626c6.733,5.223,11.509,12.812,16.402,19.672c0.463,0.65,1.548,0.027,1.079-0.631     c-4.938-6.923-9.802-14.654-16.597-19.926C122.62,197.254,121.729,198.132,122.365,198.626L122.365,198.626z" fill="#2F353A"/></g></g><g><g><path d="M124.486,195.091c3.583,3.418,7.598,6.243,10.819,10.039c3.411,4.02,5.81,8.737,9.451,12.588     c0.555,0.586,1.437-0.299,0.884-0.885c-3.315-3.505-5.615-7.687-8.571-11.463c-3.39-4.33-7.755-7.4-11.699-11.164     C124.787,193.65,123.902,194.533,124.486,195.091L124.486,195.091z" fill="#2F353A"/></g></g><g><g><path d="M127.913,192.831c7.247,5.518,13.059,12.551,19.437,18.994c0.568,0.573,1.451-0.312,0.884-0.885     c-6.459-6.524-12.352-13.602-19.69-19.189C127.902,191.263,127.28,192.35,127.913,192.831L127.913,192.831z" fill="#2F353A"/></g></g><g><g><path d="M131.46,188.835c5.457,7.837,12.455,14.392,19.189,21.104c0.572,0.569,1.455-0.314,0.884-0.885     c-6.656-6.633-13.601-13.104-18.994-20.851C132.082,187.548,130.998,188.172,131.46,188.835L131.46,188.835z" fill="#2F353A"/></g></g><g><g><path d="M135.564,185.897c6.467,6.664,11.053,15.18,18.747,20.604c0.661,0.465,1.285-0.619,0.631-1.08     c-7.587-5.349-12.114-13.835-18.494-20.409C135.886,184.434,135.002,185.318,135.564,185.897L135.564,185.897z" fill="#2F353A"/></g></g><g><g><path d="M138.767,182.942c4.296,7.777,12.109,14.315,19.316,19.316c0.664,0.46,1.288-0.624,0.631-1.08     c-6.989-4.849-14.703-11.327-18.868-18.867C139.456,181.605,138.376,182.236,138.767,182.942L138.767,182.942z" fill="#2F353A"/></g></g><g><g><path d="M141.457,180.005c6.022,5.604,11.639,11.615,17.442,17.442c0.569,0.571,1.453-0.313,0.885-0.885     c-5.804-5.826-11.42-11.837-17.443-17.442C141.751,178.572,140.865,179.454,141.457,180.005L141.457,180.005z" fill="#2F353A"/></g></g><g><g><path d="M145.7,176.234c6.142,6.116,12.479,12.032,18.62,18.149c0.572,0.568,1.456-0.315,0.885-0.885     c-6.142-6.116-12.479-12.032-18.621-18.149C146.012,174.781,145.128,175.665,145.7,176.234L145.7,176.234z" fill="#2F353A"/></g></g><g><g><path d="M149.471,172.935c5.106,5.106,10.214,10.213,15.32,15.32c0.571,0.57,1.455-0.313,0.885-0.885     c-5.107-5.106-10.215-10.213-15.321-15.32C149.784,171.479,148.9,172.363,149.471,172.935L149.471,172.935z" fill="#2F353A"/></g></g><g><g><path d="M153.242,168.692c5.53,6.558,11.731,12.802,18.747,17.774c0.659,0.467,1.282-0.618,0.631-1.08     c-6.92-4.904-13.039-11.109-18.494-17.579C153.605,167.191,152.727,168.08,153.242,168.692L153.242,168.692z" fill="#2F353A"/></g></g><g><g><path d="M155.961,165.726c6.866,3.531,11.533,10.064,16.844,15.458c0.566,0.574,1.45-0.31,0.885-0.885     c-5.391-5.473-10.127-12.067-17.098-15.653C155.877,164.278,155.244,165.356,155.961,165.726L155.961,165.726z" fill="#2F353A"/></g></g><g><g><path d="M158.083,162.661c6.953,5.257,12.408,12.188,19.563,17.207c0.662,0.464,1.285-0.621,0.631-1.08     c-7.149-5.015-12.609-11.95-19.563-17.207C158.07,161.095,157.449,162.182,158.083,162.661L158.083,162.661z" fill="#2F353A"/></g></g><g><g><path d="M160.911,158.89c7.485,4.936,12.967,11.97,19.2,18.288c0.567,0.574,1.451-0.311,0.885-0.885     c-6.312-6.396-11.878-13.488-19.454-18.483C160.867,157.365,160.241,158.447,160.911,158.89L160.911,158.89z" fill="#2F353A"/></g></g><g><g><path d="M164.446,155.354c7.166,5.436,13.123,12.165,19.437,18.522c0.569,0.572,1.453-0.313,0.885-0.885     c-6.395-6.438-12.435-13.213-19.69-18.718C164.435,153.787,163.813,154.874,164.446,155.354L164.446,155.354z" fill="#2F353A"/></g></g><g><g><path d="M168.326,153.607c6.926,5.84,12.405,13.49,20.398,18.011c0.702,0.396,1.332-0.683,0.631-1.08     c-7.898-4.466-13.302-12.044-20.145-17.815C168.599,152.207,167.71,153.087,168.326,153.607L168.326,153.607z" fill="#2F353A"/></g></g><g><g><path d="M170.811,150.404c6.285,4.139,10.644,10.463,16.734,14.85c0.655,0.472,1.278-0.613,0.631-1.08     c-6.091-4.386-10.441-10.705-16.734-14.85C170.766,148.88,170.141,149.963,170.811,150.404L170.811,150.404z" fill="#2F353A"/></g></g><g><g><path d="M174.219,146.771c5.779,5.384,10.943,11.367,16.5,16.971c0.568,0.572,1.452-0.312,0.885-0.885     c-5.558-5.604-10.722-11.586-16.5-16.97C174.515,145.338,173.628,146.221,174.219,146.771L174.219,146.771z" fill="#2F353A"/></g></g><g><g><path d="M177.755,142.765c5.938,5.056,11.227,10.768,16.499,16.499c0.547,0.594,1.429-0.292,0.885-0.885     c-5.273-5.73-10.562-11.442-16.499-16.498C178.029,141.361,177.141,142.241,177.755,142.765L177.755,142.765z" fill="#2F353A"/></g></g><g><g><path d="M181.055,139.936c5.649,5.263,10.578,11.128,15.32,17.207c0.496,0.635,1.374-0.257,0.885-0.885     c-4.742-6.078-9.672-11.943-15.32-17.206C181.351,138.503,180.464,139.385,181.055,139.936L181.055,139.936z" fill="#2F353A"/></g></g><g><g><path d="M182.831,136.498c7.214,4.775,12.258,12.169,18.494,18.052c0.586,0.552,1.472-0.33,0.885-0.885     c-6.323-5.963-11.433-13.404-18.748-18.246C182.787,134.973,182.162,136.056,182.831,136.498L182.831,136.498z" fill="#2F353A"/></g></g><g><g><path d="M186.947,132.629c6.499,5.62,12.751,11.441,18.148,18.149c0.506,0.628,1.385-0.263,0.885-0.885     c-5.397-6.707-11.65-12.529-18.148-18.148C187.225,131.221,186.337,132.101,186.947,132.629L186.947,132.629z" fill="#2F353A"/></g></g><g><g><path d="M190.482,129.447c6.436,6.078,12.876,12.153,19.799,17.678c0.624,0.498,1.515-0.381,0.885-0.884     c-6.924-5.525-13.364-11.6-19.799-17.678C190.781,128.01,189.896,128.893,190.482,129.447L190.482,129.447z" fill="#2F353A"/></g></g><g><g><path d="M193.614,126.54c7.053,3.485,11.318,10.14,16.844,15.458c0.581,0.559,1.466-0.324,0.885-0.884     c-5.607-5.397-9.944-12.119-17.098-15.654C193.525,125.104,192.892,126.183,193.614,126.54L193.614,126.54z" fill="#2F353A"/></g></g><g><g><path d="M195.865,122.426c1.79,2.823,4.899,4.397,7.589,6.234c4.188,2.861,7.351,7.57,10.266,11.621     c0.467,0.648,1.552,0.025,1.08-0.631c-2.588-3.594-5.304-7.037-8.406-10.203c-2.847-2.904-7.215-4.128-9.448-7.651     C196.515,121.117,195.433,121.743,195.865,122.426L195.865,122.426z" fill="#2F353A"/></g></g><g><g><path d="M200.305,120.415c7.206,2.928,11.623,10.209,16.871,15.573c0.565,0.577,1.448-0.308,0.885-0.884     c-5.45-5.568-9.94-12.854-17.424-15.894C199.89,118.906,199.568,120.116,200.305,120.415L200.305,120.415z" fill="#2F353A"/></g></g><g><g><path d="M203.69,116.109c4.172,2.509,7.895,5.512,11.364,8.918c2.524,2.478,4.475,5.312,7.551,7.169     c0.691,0.418,1.319-0.663,0.631-1.079c-3.654-2.207-6.169-5.944-9.246-8.85c-2.938-2.774-6.211-5.158-9.669-7.237     C203.629,114.614,203.001,115.695,203.69,116.109L203.69,116.109z" fill="#2F353A"/></g></g><g><g><path d="M206.923,111.946c5.33,5.847,12.379,9.815,17.227,16.137c0.483,0.63,1.57,0.009,1.08-0.631     c-4.922-6.417-12.015-10.458-17.422-16.39C207.263,110.465,206.382,111.352,206.923,111.946L206.923,111.946z" fill="#2F353A"/></g></g><g><g><path d="M210.938,108.155c6.705,3.265,11.911,9.773,15.686,16.039c0.416,0.689,1.497,0.062,1.08-0.631     c-3.887-6.451-9.234-13.128-16.135-16.487C210.848,106.724,210.214,107.802,210.938,108.155L210.938,108.155z" fill="#2F353A"/></g></g><g><g><path d="M215.055,103.814c5.612,5.595,11.34,11.069,16.439,17.147c0.52,0.618,1.398-0.271,0.885-0.884     c-5.101-6.078-10.828-11.552-16.439-17.147C215.368,102.361,214.483,103.245,215.055,103.814L215.055,103.814z" fill="#2F353A"/></g></g><g><g><path d="M219.07,100.376c7.663,4.428,12.047,12.27,18.081,18.464c0.563,0.578,1.447-0.306,0.885-0.884     c-6.115-6.277-10.57-14.172-18.335-18.659C219.002,98.893,218.373,99.974,219.07,100.376L219.07,100.376z" fill="#2F353A"/></g></g><g><g><path d="M221.064,96.743c2.56,3.01,6.176,4.601,9.192,7.071c3.35,2.742,5.52,6.747,8.662,9.723     c0.585,0.554,1.471-0.329,0.885-0.884c-3.169-3-5.494-6.724-8.662-9.723c-2.846-2.693-6.606-4.03-9.192-7.071     C221.426,95.244,220.546,96.133,221.064,96.743L221.064,96.743z" fill="#2F353A"/></g></g><g><g><path d="M224.551,93.482c7.259,4.102,11.35,11.276,16.667,17.403c0.529,0.61,1.41-0.278,0.885-0.884     c-5.396-6.217-9.56-13.439-16.921-17.599C224.479,92.006,223.85,93.085,224.551,93.482L224.551,93.482z" fill="#2F353A"/></g></g><g><g><path d="M228.313,88.081c6.654,6.123,11.724,13.477,16.52,21.087c0.429,0.68,1.511,0.053,1.08-0.631     c-4.856-7.705-9.979-15.142-16.715-21.34C228.604,86.652,227.719,87.534,228.313,88.081L228.313,88.081z" fill="#2F353A"/></g></g><g><g><path d="M230.384,86.234c8.074,3.929,12.639,11.226,17.63,18.337c0.46,0.654,1.544,0.031,1.08-0.631     c-5.107-7.277-9.821-14.768-18.079-18.786C230.293,84.804,229.659,85.882,230.384,86.234L230.384,86.234z" fill="#2F353A"/></g></g><g><g><path d="M234.627,81.992c8.333,4.2,13.012,12.85,18.337,20.105c0.472,0.643,1.558,0.02,1.08-0.631     c-5.444-7.417-10.264-16.258-18.786-20.553C234.54,80.551,233.907,81.629,234.627,81.992L234.627,81.992z" fill="#2F353A"/></g></g><g><g><path d="M238.339,78.633c8.112,4.67,12.106,13.321,18.611,19.701c0.576,0.564,1.461-0.319,0.885-0.884     c-6.595-6.468-10.638-15.16-18.865-19.896C238.27,77.151,237.641,78.231,238.339,78.633L238.339,78.633z" fill="#2F353A"/></g></g><g><g><path d="M242.229,75.097c7.223,4.836,12.232,12.157,18.258,18.287c0.566,0.576,1.449-0.309,0.885-0.884     c-6.109-6.215-11.189-13.579-18.512-18.482C242.188,73.568,241.563,74.651,242.229,75.097L242.229,75.097z" fill="#2F353A"/></g></g><g><g><path d="M245.813,70.58c3.593,3.492,7.489,6.598,10.508,10.634c2.957,3.955,5.313,8.266,8.584,11.993     c0.533,0.607,1.414-0.281,0.885-0.884c-3.554-4.049-5.985-8.843-9.35-13.02c-2.874-3.568-6.47-6.425-9.742-9.607     C246.12,69.134,245.235,70.018,245.813,70.58L245.813,70.58z" fill="#2F353A"/></g></g><g><g><path d="M248.642,67.398c6.61,5.704,12.14,12.242,17.227,19.319c0.466,0.648,1.551,0.025,1.08-0.631     c-5.145-7.156-10.733-13.8-17.422-19.572C248.919,65.991,248.03,66.871,248.642,67.398L248.642,67.398z" fill="#2F353A"/></g></g><g><g><path d="M253.012,63.96c7.36,4.389,11.688,11.99,15.509,19.398c0.37,0.717,1.448,0.084,1.08-0.631     c-3.924-7.605-8.409-15.345-15.958-19.846C252.948,62.467,252.32,63.548,253.012,63.96L253.012,63.96z" fill="#2F353A"/></g></g><g><g><path d="M255.89,59.443c5.718,5.686,11.728,11.218,14.929,18.789c0.313,0.74,1.39,0.103,1.08-0.631     c-3.242-7.667-9.331-13.281-15.124-19.042C256.202,57.991,255.318,58.875,255.89,59.443L255.89,59.443z" fill="#2F353A"/></g></g></g><g id="Layer_2"/></svg>